<?xml version="1.0" encoding="UTF-8" standalone="no"?>
<svg
   id="logo"
   viewBox="0 0 160 89.999999"
   version="1.1"
   width="160"
   height="90"
   xmlns="http://www.w3.org/2000/svg"
   xmlns:svg="http://www.w3.org/2000/svg">
  <defs
     id="defs1" />
  <rect
     style="fill:#008de0;fill-opacity:1;stroke:none;stroke-width:1.09545;stroke-dasharray:none;stroke-opacity:1"
     id="rect1"
     width="160"
     height="90"
     x="0"
     y="0" />
  <path
     d="m 29.213802,36.636737 c -1.02948,0.331176 -0.783786,1.685428 -0.676881,2.509699 0.310999,2.397868 0.467393,4.811597 0.605129,7.224684 -2.646246,-0.244942 -5.082363,-2.403048 -5.309644,-5.111585 -0.29209,-1.180181 0.338842,-2.626334 -0.176149,-3.654143 -1.240383,-0.08501 -1.510023,1.400426 -1.424945,2.323774 0.156521,1.698626 0.731924,3.387786 1.653972,4.818619 1.161414,1.802282 3.243388,2.795053 5.328509,3.021419 0.110533,1.675697 0.142889,3.353646 0.125049,5.032583 0.514397,1.112223 1.610958,-0.410614 1.225938,-1.19286 -0.05876,-1.267924 -0.106535,-2.53612 -0.168155,-3.803854 2.11279,-0.05407 4.033573,-1.488588 4.823707,-3.426704 0.813966,0.70618 0.722092,1.910641 0.953526,2.879828 0.0088,0.817169 0.07872,3.010016 1.3746,2.119552 0.94898,-1.358743 1.545661,-2.92555 2.418125,-4.322588 0.618789,-0.477319 0.616818,0.715563 0.773827,1.114859 0.533931,2.069545 0.973142,4.165682 1.579595,6.214926 -0.02203,1.011241 1.858362,1.511855 1.233371,0.13401 -0.852952,-2.575944 -0.996368,-5.34796 -1.935137,-7.887301 -0.410453,-1.11026 -1.940458,-1.177899 -2.687282,-0.315387 -0.791793,0.914438 -0.986639,2.151352 -1.525444,3.201787 -0.467103,-1.459451 -0.214886,-3.34419 -1.613338,-4.337754 -0.132601,-0.884377 0.254148,-2.184124 0.07483,-3.255425 -0.149073,-0.890609 -0.207264,-1.848243 -0.553902,-2.674045 -0.682366,-0.500801 -1.64812,0.05901 -0.998508,0.849064 0.358929,1.566924 0.39678,3.228747 1.35e-4,4.792312 -1.158123,0.251255 4.31e-4,1.430454 -0.902319,1.980387 -0.735473,0.938396 -1.934359,1.38305 -3.08754,1.515903 -0.180336,-3.0065 -0.07113,-6.053692 -0.613566,-9.016863 -0.05312,-0.290212 -0.113709,-0.733256 -0.497506,-0.734918 z m 68.316823,0.587064 c -1.034063,0.414637 -1.23734,1.658683 -1.602465,2.586342 -1.159087,2.944855 -2.325999,5.888653 -3.472255,8.83726 -0.05971,1.510867 1.91282,0.703817 1.852882,-0.419829 0.808574,-2.52476 1.696363,-5.020752 2.694622,-7.478113 0.177159,-0.436121 0.40619,-1.361167 0.588724,-0.375755 1.160917,2.837376 2.33514,5.675663 3.512057,8.50244 0.2464,0.377901 0.49279,0.755781 0.73918,1.133681 1.48896,0.07447 1.08195,-1.575431 0.37616,-2.276493 -0.67956,-1.042651 -1.02206,-2.266269 -1.53078,-3.401627 -0.922306,-2.058403 -1.742853,-4.179752 -2.152788,-6.403941 -0.217244,-0.343369 -0.609501,-0.616397 -1.005337,-0.703965 z M 84.783734,38.08374 c -0.628071,0.31102 -0.806423,1.12782 -1.183853,1.696047 -0.29761,0.710889 -1.832668,2.53692 -0.380564,2.611261 0.833637,-0.838928 1.174701,-2.082019 1.983419,-2.965004 0.561518,-0.419076 0.247147,-1.2911 -0.419002,-1.342304 z m 50.778836,0 c -0.50568,0.20941 -0.64649,0.835949 -0.94676,1.261728 -0.42738,0.795882 -0.87523,1.583329 -1.27548,2.39139 0.0591,1.400737 1.2869,0.277957 1.43867,-0.443702 0.22422,-1.066182 2.14854,-2.042278 1.14176,-3.08307 0,0 -0.16473,-0.08503 -0.16473,-0.08503 z m -61.823245,1.061063 c -1.286504,0.362205 -0.680358,1.951795 -0.848418,2.917597 -0.05699,2.534917 -0.158393,5.072789 -0.15244,7.606574 0.561016,1.152279 1.763701,-0.284262 1.322771,-1.152636 -0.0023,-1.093289 -0.138807,-2.232609 0.836155,-2.915978 0.700567,-0.270419 1.272041,1.262433 1.908083,1.747226 0.841221,0.641188 1.291883,2.077056 2.462822,2.097757 1.17001,-0.725591 -0.430261,-1.727682 -0.980245,-2.311647 -0.818515,-0.86909 -1.662702,-1.714218 -2.56033,-2.50202 0.826628,-0.928928 1.339336,-2.21524 2.49176,-2.796163 0.480443,0.09652 1.441928,0.638224 1.336477,-0.410941 -0.672312,-1.040991 -2.25132,-0.607368 -3.021557,0.119747 -0.989937,0.775215 -1.548235,1.933023 -2.330872,2.890587 -0.01199,-1.597509 0.134957,-3.215565 -0.14232,-4.7964 -0.06846,-0.165525 -0.09604,-0.463185 -0.32189,-0.493696 z m 35.183595,0.09132 c -1.89969,-0.05581 -3.49631,1.364457 -4.40323,2.918828 -0.96451,1.145324 1.34099,2.106849 0.0443,3.145701 -0.91559,1.284795 -0.87678,3.444382 0.6311,4.225387 1.33481,0.691363 2.95057,0.837007 4.41428,0.533117 0.88286,-0.01052 1.18201,-0.976088 0.22787,-1.178892 -0.90496,-0.05701 -1.84854,0.135273 -2.76796,-0.0042 -1.1234,0.02987 -2.37019,-0.837302 -1.91731,-2.08829 0.24053,-1.10669 1.08213,-2.453934 2.34467,-2.290266 0.80127,0.103863 2.27752,-0.588491 1.1045,-1.318021 -0.92969,-0.757327 -2.89633,1.154482 -3.03716,-0.533986 0.3722,-1.139822 1.53656,-1.782866 2.59294,-2.182513 0.72715,0.218754 2.62275,-0.558365 1.26,-1.156588 -0.15883,-0.05295 -0.32728,-0.07092 -0.49398,-0.07111 z m 11.07485,0.819716 c -2.15921,0.34394 -4.3144,0.775287 -6.43491,1.314432 -0.67734,0.329346 -2.75367,0.464054 -2.14005,1.557874 0.69029,0.570656 2.20602,-0.960558 1.92254,0.54519 0.15012,2.062435 0.16445,4.134146 -0.0608,6.191048 -0.37482,1.233821 1.5721,0.95648 1.13265,-0.113604 0.0859,-2.213738 0.19454,-4.430286 0.23265,-6.643824 0.24475,-1.178067 1.64525,-0.925565 2.49643,-1.373699 0.98721,0.01073 0.40343,1.729952 0.71012,2.413559 0.1483,1.51345 0.18392,3.037802 0.31134,4.550479 -0.041,0.896312 1.42979,2.522213 1.91282,1.175041 -0.88108,-0.742001 -0.85976,-1.930212 -0.84869,-2.989525 0.0175,-1.664015 -0.22752,-3.30916 -0.39793,-4.958785 -0.3048,-0.892682 0.90152,-0.564319 1.46013,-0.713579 1.07347,0.358767 1.64481,-0.678612 0.3641,-0.909779 -0.21818,-0.03938 -0.43983,-0.03614 -0.66036,-0.04475 z M 56.9156,40.07541 c -0.88824,0.706407 -0.875184,2.268867 -0.999862,3.375207 -0.02674,1.923041 0.0088,4.110671 1.336838,5.642218 1.051107,0.89505 2.83513,0.710823 3.708545,-0.355538 0.775049,-0.309654 0.622649,-1.902758 -0.289399,-1.094194 -0.751477,0.666202 -2.345096,1.625102 -2.858261,0.273743 -0.767635,-2.021473 -0.929672,-4.307415 -0.387527,-6.402693 0.327824,-0.516489 0.277218,-1.441163 -0.510334,-1.438743 z m 67.53408,0.321799 c -0.89652,0.149936 -2.39667,-0.155153 -2.80048,0.77514 0.76422,0.989541 2.44614,-0.192853 3.27644,0.706373 -0.12728,1.440353 -0.0972,2.89636 0.27195,4.303647 0.16452,1.273541 0.51282,2.822949 1.82945,3.320891 0.91539,0.346218 1.9467,0.361639 2.90125,0.20091 1.19366,-0.741054 -0.56213,-1.228204 -1.23437,-0.859812 -1.08906,0.143898 -1.77939,-0.923851 -2.04384,-1.845998 -0.44009,-1.534534 -0.71234,-3.192569 -0.3714,-4.772997 0.77612,-0.983506 2.45923,-0.591295 3.59062,-0.424754 1.1841,0.344832 0.85232,-1.29433 -0.18324,-1.061059 -1.73717,-0.200974 -3.48652,-0.33867 -5.23627,-0.342383 z m -74.797362,0.08914 c -0.784373,0.0986 -0.384208,1.192537 -0.486502,1.742101 0.04895,0.823684 0.159319,1.625171 -0.904641,1.642462 -1.014013,0.513916 -2.259966,0.979559 -2.772662,2.069695 -0.688321,1.463553 0.06383,3.286346 1.483594,3.993235 0.70944,0.565852 1.926433,0.51147 2.522857,0.819841 -0.176443,0.804398 0.34783,2.752345 1.246124,1.671427 0.154144,-0.791377 -0.897148,-2.141053 0.385694,-2.130471 1.348373,-0.375397 2.862347,-1.182215 3.107168,-2.6533 0.266491,-1.601308 -0.754817,-3.330793 -2.224583,-3.982458 -0.635605,-0.409907 -1.969927,0.218942 -1.662358,-0.889694 -0.03827,-0.793667 0.350186,-1.967217 -0.694691,-2.282838 z m 16.017054,0.580543 c -1.655144,0.141562 -2.482221,1.82634 -3.076552,3.175193 -0.66293,1.504554 -1.141775,3.348406 -0.386354,4.903137 0.696837,1.138751 2.111745,0.511574 2.841296,-0.233603 0.823131,-0.52424 1.456556,-1.89691 2.134505,-2.12681 0.427533,0.942701 1.005433,1.87747 1.818104,2.534395 0.725114,0.308707 2.522157,0.516203 2.623349,-0.441098 -0.649719,-0.80118 -2.229592,0.218455 -2.649036,-1.137279 -0.846739,-1.538658 -0.943437,-3.324465 -0.811377,-5.062773 0.07024,-0.924779 -1.217119,-0.488021 -1.464655,-1.300829 -0.301623,-0.203561 -0.66369,-0.322279 -1.02928,-0.310333 z m 0.432687,1.091502 c 0.966611,0.54135 0.812572,1.770997 0.504969,2.669594 -0.513647,1.500512 -1.395382,3.173601 -3.040032,3.604391 -0.951756,-0.196492 -0.628579,-1.609555 -0.459765,-2.32934 0.390292,-1.664133 1.482255,-3.136324 2.994828,-3.944645 z m 68.378791,1.161081 c -1.43759,-0.128077 -2.77046,0.986096 -3.23947,2.287284 -0.16515,1.077468 0.39086,2.147974 0.81696,3.106705 0.9684,1.414283 3.18231,1.35279 4.2874,0.132538 1.04793,-0.836587 1.90688,-2.29892 1.14866,-3.614977 -0.60488,-1.049905 -1.77087,-1.904081 -3.01355,-1.91155 z m -50.779924,0.0011 c -1.437347,-0.127762 -2.770796,0.985786 -3.239121,2.28729 -0.163926,1.077511 0.390546,2.148226 0.817688,3.106705 0.968215,1.414304 3.18218,1.352769 4.287072,0.132538 1.046614,-0.837491 1.907409,-2.298457 1.14899,-3.614998 -0.60506,-1.050326 -1.771518,-1.904338 -3.014629,-1.911535 z m 50.728824,1.005618 c 1.15089,0.03389 2.35292,1.024422 2.14196,2.272318 -0.19586,1.157938 -1.46972,2.041375 -2.56608,2.172377 -0.65827,-0.308413 -1.51129,-0.9208 -0.81273,-1.598173 0.25765,-0.673797 -1.35986,-1.228415 -0.41583,-2.016722 0.42235,-0.460945 1.00649,-0.838827 1.65268,-0.8298 z m -50.779921,0.0011 c 1.151648,0.03297 2.351649,1.024029 2.141953,2.272324 -0.194599,1.158358 -1.469513,2.040513 -2.56516,2.172377 -0.658965,-0.30734 -1.51059,-0.921011 -0.813206,-1.598552 0.257218,-0.67428 -1.359788,-1.22833 -0.416267,-2.016349 0.422343,-0.460945 1.006479,-0.838829 1.65268,-0.8298 z m -32.639655,0.215262 c 1.896402,0.0042 2.738538,2.697598 1.461859,3.964195 -0.36909,0.463967 -1.824836,1.61574 -2.026102,0.871404 -0.05259,-1.599604 -0.0771,-3.199818 -0.117412,-4.799723 0.226751,-0.01767 0.45426,-0.02996 0.681646,-0.03587 z m -1.792718,0.125028 c 0.0483,1.685808 0.125448,3.371541 0.215256,5.055275 -1.159737,-0.155048 -2.702594,-0.481175 -3.076925,-1.732605 -0.417944,-1.397221 0.861214,-2.670151 2.074788,-3.118017 0.254698,-0.094 0.518976,-0.161255 0.786881,-0.204653 z"
     id="path1"
     style="fill:#f9f9f9;fill-opacity:1;stroke-width:2.10377" />
  <rect
     style="fill:#f9f9f9;fill-opacity:1;stroke:none;stroke-width:0.2582;stroke-dasharray:none;stroke-opacity:1"
     id="rect4"
     width="160"
     height="5"
     x="0"
     y="80" />
</svg>
